<svg xmlns="http://www.w3.org/2000/svg" width="512" height="512" viewBox="0 0 512 512" role="img" aria-labelledby="title desc">
  <title id="title">Chess mark</title><desc id="desc">The Integ.Life leaf with a charcoal knight badge.</desc>
  <rect width="512" height="512" rx="112" fill="#f1eee6"/><circle cx="244" cy="244" r="160" fill="#274b62"/>
  <path d="M136 288c19-103 98-167 219-179-18 107-93 198-219 179Z" fill="#fffdf7"/><path d="M136 326c68-68 131-131 207-203" fill="none" stroke="#fffdf7" stroke-width="18" stroke-linecap="round"/>
  <circle cx="390" cy="390" r="78" fill="#343a40" stroke="#f1eee6" stroke-width="18"/><path d="M363 423h57v-10h-8c4-28-3-47-25-57l8-14-19 4-15 18 14 10c-17 9-24 22-24 39h-7v10Z" fill="#fffdf7"/><circle cx="378" cy="358" r="4" fill="#343a40"/>
</svg>
